<svg width="76" height="75" xmlns="http://www.w3.org/2000/svg" xmlns:xlink="http://www.w3.org/1999/xlink" overflow="hidden"><defs><clipPath id="clip0"><rect x="116" y="458" width="76" height="75"/></clipPath></defs><g clip-path="url(#clip0)" transform="translate(-116 -458)"><path d="M56.6711 16.4062C55.3762 12.2905 50.9898 10.0037 46.8741 11.2986 44.4394 12.0646 42.5324 13.9716 41.7664 16.4062L10.9375 16.4062 10.9375 21.0938 41.7664 21.0938C43.0613 25.2095 47.4477 27.4963 51.5634 26.2014 53.9981 25.4354 55.9051 23.5284 56.6711 21.0938L64.0625 21.0938 64.0625 16.4062ZM49.2188 21.875C47.4929 21.875 46.0938 20.4759 46.0938 18.75 46.0938 17.0241 47.4929 15.625 49.2188 15.625 50.9446 15.625 52.3438 17.0241 52.3438 18.75 52.3438 20.4759 50.9446 21.875 49.2188 21.875Z" fill="#FFFFFF" transform="matrix(1.01333 0 0 1 116 458)"/><path d="M46.0938 48.4375C42.6834 48.4419 39.6686 50.6542 38.6414 53.9062L10.9375 53.9062 10.9375 58.5938 38.6414 58.5938C39.9363 62.7095 44.3227 64.9963 48.4384 63.7014 50.8731 62.9354 52.7801 61.0284 53.5461 58.5938L64.0625 58.5938 64.0625 53.9062 53.5461 53.9062C52.5189 50.6542 49.5041 48.4419 46.0938 48.4375ZM46.0938 59.375C44.3679 59.375 42.9688 57.9759 42.9688 56.25 42.9688 54.5241 44.3679 53.125 46.0938 53.125 47.8196 53.125 49.2188 54.5241 49.2188 56.25 49.2188 57.9759 47.8196 59.375 46.0938 59.375Z" fill="#FFFFFF" transform="matrix(1.01333 0 0 1 116 458)"/><path d="M26.5625 29.6875C23.1522 29.6919 20.1373 31.9042 19.1102 35.1562L10.9375 35.1562 10.9375 39.8438 19.1102 39.8438C20.4051 43.9595 24.7914 46.2463 28.9072 44.9514 31.3419 44.1854 33.2488 42.2784 34.0148 39.8438L64.0625 39.8438 64.0625 35.1562 34.0148 35.1562C32.9877 31.9042 29.9728 29.6919 26.5625 29.6875ZM26.5625 40.625C24.8366 40.625 23.4375 39.2259 23.4375 37.5 23.4375 35.7741 24.8366 34.375 26.5625 34.375 28.2884 34.375 29.6875 35.7741 29.6875 37.5 29.6875 39.2259 28.2884 40.625 26.5625 40.625Z" fill="#FFFFFF" transform="matrix(1.01333 0 0 1 116 458)"/></g></svg>