<svg width="75" height="75" xmlns="http://www.w3.org/2000/svg" xmlns:xlink="http://www.w3.org/1999/xlink" overflow="hidden"><defs><clipPath id="clip0"><rect x="115" y="548" width="75" height="75"/></clipPath></defs><g clip-path="url(#clip0)" transform="translate(-115 -548)"><path d="M142.023 598.32 133.102 589.406 142.023 580.492 144.227 582.695 137.523 589.406 144.227 596.117 142.023 598.32Z" fill="#FFFFFF"/><path d="M162.977 598.32 160.773 596.117 167.477 589.406 160.773 582.695 162.977 580.492 171.898 589.406 162.977 598.32Z" fill="#FFFFFF"/><path d="M147.267 598.251 154.741 580.215 157.628 581.412 150.154 599.448Z" fill="#FFFFFF"/><path d="M121.25 561.281 121.25 609.719 183.75 609.719 183.75 561.281ZM175.156 565.969C176.019 565.969 176.719 566.668 176.719 567.531 176.719 568.394 176.019 569.094 175.156 569.094 174.293 569.094 173.594 568.394 173.594 567.531 173.594 566.668 174.293 565.969 175.156 565.969ZM169.688 565.969C170.55 565.969 171.25 566.668 171.25 567.531 171.25 568.394 170.55 569.094 169.688 569.094 168.825 569.094 168.125 568.394 168.125 567.531 168.125 566.668 168.825 565.969 169.688 565.969ZM164.219 565.969C165.082 565.969 165.781 566.668 165.781 567.531 165.781 568.394 165.082 569.094 164.219 569.094 163.356 569.094 162.656 568.394 162.656 567.531 162.656 566.668 163.356 565.969 164.219 565.969ZM179.062 605.031 125.938 605.031 125.938 573.781 179.062 573.781Z" fill="#FFFFFF"/></g></svg>