<svg width="75" height="76" xmlns="http://www.w3.org/2000/svg" xmlns:xlink="http://www.w3.org/1999/xlink" overflow="hidden"><defs><clipPath id="clip0"><rect x="122" y="297" width="75" height="76"/></clipPath></defs><g clip-path="url(#clip0)" transform="translate(-122 -297)"><path d="M55.3906 21.1719 51.0156 19.4531C47.1094 29.1406 42.4219 36.4844 36.6406 41.6406 29.8438 36.0938 24.6875 28.6719 21.7969 20.3906L17.3438 21.9531C20.4688 30.625 25.7812 38.5156 32.8906 44.5312 28.5156 47.5 23.5938 49.4531 18.3594 50.3906L19.2188 55C25.5469 53.9062 31.5625 51.4063 36.7188 47.5781 43.9844 52.8125 51.0938 55.3906 54.6875 55.4688L54.8437 50.7812C52.6562 50.7031 46.7969 48.75 40.4688 44.4531 46.4062 38.8281 51.4063 31.0938 55.3906 21.1719Z" fill="#FFFFFF" transform="matrix(-1 0 0 1.01333 197 297)"/><path d="M15.7031 64.0625 64.1406 64.0625 64.1406 15.625 64.375 15.625 69.4531 15.625 61.7969 7.89063 54.0625 15.5469 59.4531 15.625 59.4531 59.375 15.625 59.375 15.625 53.9844 7.96875 61.7188 15.7031 69.375Z" fill="#FFFFFF" transform="matrix(-1 0 0 1.01333 197 297)"/></g></svg>