<svg width="76" height="75" xmlns="http://www.w3.org/2000/svg" xmlns:xlink="http://www.w3.org/1999/xlink" overflow="hidden"><defs><clipPath id="clip0"><rect x="247" y="548" width="76" height="75"/></clipPath></defs><g clip-path="url(#clip0)" transform="translate(-247 -548)"><path d="M37.4836 7.8125C21.0967 7.8125 7.8125 21.0967 7.8125 37.4836 7.8125 53.8705 21.0967 67.1547 37.4836 67.1547 53.8705 67.1547 67.1547 53.8705 67.1547 37.4836 67.162 21.1041 53.8897 7.81984 37.5102 7.8125 37.5013 7.8125 37.4924 7.8125 37.4836 7.8125ZM37.4836 65.5922C21.9596 65.5922 9.375 53.0076 9.375 37.4836 9.375 21.9596 21.9596 9.375 37.4836 9.375 53.0076 9.375 65.5922 21.9596 65.5922 37.4836 65.5745 53.0002 53.0002 65.5745 37.4836 65.5922Z" fill="#FFFFFF" transform="matrix(1.01333 0 0 1 247 548)"/><path d="M38.2812 27.3438 32.0312 27.3438 32.0312 28.9062 36.7188 28.9062 36.7188 52.3438 31.25 52.3438 31.25 53.9062 43.75 53.9062 43.75 52.3438 38.2812 52.3438 38.2812 27.3438Z" fill="#FFFFFF" transform="matrix(1.01333 0 0 1 247 548)"/><path d="M38.3312 20.7031C38.3312 21.6739 37.5443 22.4609 36.5734 22.4609 35.6026 22.4609 34.8156 21.6739 34.8156 20.7031 34.8156 19.7323 35.6026 18.9453 36.5734 18.9453 37.5443 18.9453 38.3312 19.7323 38.3312 20.7031Z" fill="#FFFFFF" transform="matrix(1.01333 0 0 1 247 548)"/></g></svg>