<svg width="75" height="76" xmlns="http://www.w3.org/2000/svg" xmlns:xlink="http://www.w3.org/1999/xlink" overflow="hidden"><defs><clipPath id="clip0"><rect x="121" y="373" width="75" height="76"/></clipPath></defs><g clip-path="url(#clip0)" transform="translate(-121 -373)"><path d="M53.125 23.5938C51.25 23.5938 49.6875 22.0312 49.7656 20.0781 49.7656 18.2031 51.3281 16.6406 53.2031 16.6406 55.0781 16.6406 56.6406 18.2031 56.6406 20.0781 56.6406 21.0156 56.25 21.875 55.625 22.5 54.9219 23.2031 54.0625 23.5938 53.125 23.5938ZM49.7656 12.7344C48.0469 13.3594 46.7188 14.6875 45.8594 16.25 44.7656 18.3594 44.6094 20.7812 45.4688 22.9688L49.2188 31.0938 51.7187 36.25C51.9531 36.7969 52.5 37.1094 53.125 37.1094 53.75 37.1094 54.2969 36.7969 54.5313 36.25L57.0312 31.0938 60.7813 23.0469C61.1719 22.1094 61.3281 21.0938 61.3281 20.0781 61.3281 14.6094 55.7031 10.4688 49.7656 12.7344Z" fill="#FFFFFF" transform="matrix(1 0 0 1.01333 121 373)"/><path d="M35.9375 56.875 23.4375 50.625 23.4375 25.1562 35.9375 31.4062 35.9375 56.875ZM20.3125 50.625 10.9375 55.3125 10.9375 29.8438 20.3125 25.1562 20.3125 50.625ZM63.5938 24.375 63.5938 24.375 61.6406 28.5937 64.0625 29.8438 64.0625 55.3125 54.6875 50.625 54.6875 40.2344 51.5625 40.2344 51.5625 50.625 39.0625 56.875 39.0625 31.4062 44.6094 28.5937 42.6562 24.375 37.5 26.9531 21.875 19.1406 6.25 26.9531 6.25 62.8906 21.875 55.0781 37.5 62.8906 53.125 55.0781 68.75 62.8906 68.75 26.9531 63.5938 24.375Z" fill="#FFFFFF" transform="matrix(1 0 0 1.01333 121 373)"/></g></svg>