<svg width="75" height="76" xmlns="http://www.w3.org/2000/svg" xmlns:xlink="http://www.w3.org/1999/xlink" overflow="hidden"><defs><clipPath id="clip0"><rect x="121" y="208" width="75" height="76"/></clipPath></defs><g clip-path="url(#clip0)" transform="translate(-121 -208)"><path d="M31.8227 67.332 67.1875 58.7961 67.1875 19.9523 41.4484 7.69531 7.8125 15.0344 7.8125 54.4039ZM40.8805 12.6172 57.707 20.6297 44.0852 23.6828 32.4852 26.2828 16.8453 17.8609ZM12.5 51.6039 12.5 20.8453 29.8008 30.1617 29.8008 60.9203ZM62.5 55.1055 34.4883 61.8672 34.4883 30.6383 46.6633 27.9086 62.5 24.3594Z" fill="#FFFFFF" transform="matrix(1 0 0 1.01333 121 208)"/><path d="M40.3828 14.2078 41.9453 14.2078 41.9453 17.3328 40.3828 17.3328Z" fill="#FFFFFF" transform="matrix(1 0 0 1.01333 121 208)"/><path d="M40.3828 30.6141 41.9453 30.6141 41.9453 33.7391 40.3828 33.7391Z" fill="#FFFFFF" transform="matrix(1 0 0 1.01333 121 208)"/><path d="M40.3828 36.0828 41.9453 36.0828 41.9453 39.2078 40.3828 39.2078Z" fill="#FFFFFF" transform="matrix(1 0 0 1.01333 121 208)"/><path d="M40.3828 19.6766 41.9453 19.6766 41.9453 22.8016 40.3828 22.8016Z" fill="#FFFFFF" transform="matrix(1 0 0 1.01333 121 208)"/><path d="M40.3828 41.5516 41.9453 41.5516 41.9453 44.6766 40.3828 44.6766Z" fill="#FFFFFF" transform="matrix(1 0 0 1.01333 121 208)"/><path d="M52.8652 50.3816 54.4312 50.3816 54.4312 53.5135 52.8652 53.5135Z" fill="#FFFFFF" transform="matrix(0.411297 -0.921182 0.909061 0.416781 105.24 288.292)"/><path d="M36.8536 46.0897 39.9805 46.0897 39.9805 47.6532 36.8536 47.6532Z" fill="#FFFFFF" transform="matrix(0.976481 -0.215602 0.212765 0.989501 111.908 217.371)"/><path d="M15.4688 50.7558 18.5957 50.7558 18.5957 52.3193 15.4688 52.3193Z" fill="#FFFFFF" transform="matrix(0.976481 -0.215602 0.212765 0.989501 110.425 212.869)"/><path d="M47.8712 48.1226 49.4372 48.1226 49.4372 51.2537 47.8712 51.2537Z" fill="#FFFFFF" transform="matrix(0.411187 -0.921234 0.909112 0.41667 104.367 282.357)"/><path d="M57.8591 52.6405 59.4251 52.6405 59.4251 55.7724 57.8591 55.7724Z" fill="#FFFFFF" transform="matrix(0.411297 -0.921182 0.909061 0.416781 106.115 294.235)"/><path d="M42.8781 45.8636 44.4441 45.8636 44.4441 48.9956 42.8781 48.9956Z" fill="#FFFFFF" transform="matrix(0.411187 -0.921234 0.909112 0.41667 103.492 276.414)"/><path d="M20.815 49.5895 23.9419 49.5895 23.9419 51.153 20.815 51.153Z" fill="#FFFFFF" transform="matrix(0.976481 -0.215602 0.212765 0.989501 110.795 213.995)"/><path d="M26.1612 48.4232 29.2881 48.4232 29.2881 49.9866 26.1612 49.9866Z" fill="#FFFFFF" transform="matrix(0.976481 -0.215602 0.212765 0.989501 111.166 215.12)"/></g></svg>